<svg width="1280" height="840" viewBox="0 0 1280 840" fill="none" xmlns="http://www.w3.org/2000/svg">
  <defs>
    <linearGradient id="demand-bg" x1="70" y1="72" x2="1208" y2="768" gradientUnits="userSpaceOnUse">
      <stop stop-color="#0C1015"/>
      <stop offset="1" stop-color="#07090D"/>
    </linearGradient>
    <radialGradient id="demand-lime" cx="0" cy="0" r="1" gradientUnits="userSpaceOnUse" gradientTransform="translate(230 228) rotate(38.7259) scale(238.052)">
      <stop stop-color="#E7F8C8" stop-opacity="0.24"/>
      <stop offset="1" stop-color="#E7F8C8" stop-opacity="0"/>
    </radialGradient>
  </defs>
  <rect width="1280" height="840" rx="40" fill="#07090D"/>
  <rect x="74" y="74" width="1132" height="692" rx="30" fill="url(#demand-bg)" stroke="rgba(255,255,255,0.08)" stroke-width="2"/>
  <circle cx="240" cy="230" r="212" fill="url(#demand-lime)"/>
  <rect x="134" y="168" width="188" height="440" rx="26" fill="rgba(231,248,200,0.08)" stroke="rgba(231,248,200,0.22)"/>
  <rect x="382" y="228" width="188" height="380" rx="26" fill="rgba(255,255,255,0.04)" stroke="rgba(255,255,255,0.08)"/>
  <rect x="630" y="290" width="188" height="318" rx="26" fill="rgba(255,255,255,0.03)" stroke="rgba(255,255,255,0.07)"/>
  <rect x="878" y="352" width="188" height="256" rx="26" fill="rgba(255,255,255,0.025)" stroke="rgba(255,255,255,0.06)"/>
  <path d="M226 210C298 210 350 248 350 320C350 392 404 420 476 420C548 420 598 456 598 520C598 574 642 608 710 608C768 608 816 580 860 538C894 504 934 482 990 482" stroke="rgba(231,248,200,0.7)" stroke-width="12" stroke-linecap="round"/>
  <circle cx="226" cy="210" r="10" fill="#E7F8C8"/>
  <circle cx="476" cy="420" r="10" fill="#E7F8C8"/>
  <circle cx="710" cy="608" r="10" fill="#E7F8C8"/>
  <circle cx="990" cy="482" r="10" fill="#E7F8C8"/>
</svg>
